<?xml version="1.0" encoding="UTF-8" standalone="no"?>
<!-- Created with Inkscape (http://www.inkscape.org/) -->

<svg
   xmlns:dc="http://purl.org/dc/elements/1.1/"
   xmlns:cc="http://creativecommons.org/ns#"
   xmlns:rdf="http://www.w3.org/1999/02/22-rdf-syntax-ns#"
   xmlns:svg="http://www.w3.org/2000/svg"
   xmlns="http://www.w3.org/2000/svg"
   xmlns:sodipodi="http://sodipodi.sourceforge.net/DTD/sodipodi-0.dtd"
   xmlns:inkscape="http://www.inkscape.org/namespaces/inkscape"
   width="35.451355mm"
   height="10.994578mm"
   viewBox="0 0 35.451357 10.994578"
   version="1.1"
   id="svg8"
   inkscape:version="0.92.3 (2405546, 2018-03-11)"
   sodipodi:docname="logo.svg">
  <defs
     id="defs2" />
  <sodipodi:namedview
     id="base"
     pagecolor="#ffffff"
     bordercolor="#666666"
     borderopacity="1.0"
     inkscape:pageopacity="0.0"
     inkscape:pageshadow="2"
     inkscape:zoom="5.6"
     inkscape:cx="104.03985"
     inkscape:cy="19.442171"
     inkscape:document-units="mm"
     inkscape:current-layer="layer1"
     showgrid="false"
     fit-margin-top="1"
     fit-margin-right="1"
     fit-margin-bottom="1"
     fit-margin-left="1"
     inkscape:window-width="1920"
     inkscape:window-height="1016"
     inkscape:window-x="0"
     inkscape:window-y="27"
     inkscape:window-maximized="1"
     showguides="true"
     inkscape:guide-bbox="true"
     inkscape:showpageshadow="false"
     showborder="false">
    <sodipodi:guide
       position="-3.8270089,24.09598"
       orientation="-0.70710678,0.70710678"
       id="guide4601"
       inkscape:locked="false" />
  </sodipodi:namedview>
  <metadata
     id="metadata5">
    <rdf:RDF>
      <cc:Work
         rdf:about="">
        <dc:format>image/svg+xml</dc:format>
        <dc:type
           rdf:resource="http://purl.org/dc/dcmitype/StillImage" />
        <dc:title></dc:title>
      </cc:Work>
    </rdf:RDF>
  </metadata>
  <g
     inkscape:label="Ebene 1"
     inkscape:groupmode="layer"
     id="layer1"
     transform="translate(-26.299882,-29.764981)">
    <text
       xml:space="preserve"
       style="font-style:normal;font-variant:normal;font-weight:normal;font-stretch:normal;font-size:7.05555556px;line-height:1.25;font-family:Purisa;-inkscape-font-specification:'Purisa, Normal';font-variant-ligatures:normal;font-variant-caps:normal;font-variant-numeric:normal;font-feature-settings:normal;text-align:start;letter-spacing:0px;word-spacing:0px;writing-mode:lr;text-anchor:start;fill:#232323;fill-opacity:1;stroke:none;stroke-width:0.26458332;"
       x="43.652493"
       y="37.567146"
       id="text4527"><tspan
         sodipodi:role="line"
         id="tspan4525"
         x="43.652493"
         y="37.567146"
         style="font-style:normal;font-variant:normal;font-weight:normal;font-stretch:normal;font-size:7.05555556px;font-family:Purisa;-inkscape-font-specification:'Purisa, Normal';font-variant-ligatures:normal;font-variant-caps:normal;font-variant-numeric:normal;font-feature-settings:normal;text-align:start;writing-mode:lr;text-anchor:start;stroke-width:0.26458332;fill:#232323;fill-opacity:1;">hirl</tspan></text>
    <g
       id="g4597"
       transform="matrix(1.0709764,0,0,1.152682,4.9684484,-4.6724922)">
      <path
         transform="matrix(-0.13334389,-0.99106983,-0.99106983,0.13334389,62.0312,-2.4908702)"
         d="m -32.185946,34.484333 c -0.109925,-0.477191 0.463143,-0.755458 0.855041,-0.70549 0.764457,0.09747 1.129925,0.951141 0.956314,1.637174 -0.263792,1.04239 -1.446722,1.515537 -2.419307,1.207138 -1.321034,-0.418888 -1.905269,-1.944661 -1.457962,-3.20144 0.569634,-1.600477 2.443613,-2.297005 3.983573,-1.708786 0.446626,0.170598 0.854304,0.437935 1.191883,0.776194"
         sodipodi:t0="0.12520042"
         sodipodi:argument="-16.41659"
         sodipodi:radius="3.4957173"
         sodipodi:revolution="1.5047132"
         sodipodi:expansion="1"
         sodipodi:cy="34.684521"
         sodipodi:cx="-31.796747"
         id="path3699"
         style="fill:none;fill-rule:evenodd;stroke:#43eed0;stroke-width:1.46500003;stroke-linecap:round;stroke-miterlimit:4;stroke-dasharray:none;stroke-opacity:1"
         sodipodi:type="spiral" />
      <path
         d="m 25.751263,33.321797 c 0.694475,-0.157597 1.264926,0.491593 1.315866,1.135649 0.07999,1.011312 -0.845556,1.781785 -1.804024,1.793276 -1.32423,0.01587 -2.304166,-1.200797 -2.270684,-2.472399 0.04309,-1.636394 1.556457,-2.829075 3.140773,-2.748093 1.948375,0.09959 3.355358,1.912312 3.225502,3.809147 -0.154739,2.260315 -2.26828,3.88247 -4.477522,3.702912 -2.572254,-0.209063 -4.410121,-2.624322 -4.18032,-5.145897 0.06365,-0.698432 0.276907,-1.380813 0.618302,-1.993206"
         sodipodi:t0="0.17643197"
         sodipodi:argument="-16.41659"
         sodipodi:radius="5.1230445"
         sodipodi:revolution="2.205189"
         sodipodi:expansion="1"
         sodipodi:cy="34.213367"
         sodipodi:cx="25.602667"
         id="path3699-3"
         style="fill:none;fill-rule:evenodd;stroke:#43eed0;stroke-width:1.46500015;stroke-linecap:round;stroke-miterlimit:4;stroke-dasharray:none;stroke-opacity:1"
         sodipodi:type="spiral" />
    </g>
    <path
       style="fill:#43eed0;fill-opacity:1;stroke:#23afff;stroke-width:1.15799999;stroke-linecap:round;stroke-miterlimit:4;stroke-dasharray:none;stroke-opacity:1"
       id="path4639"
       d="m 38.321868,40.037457 c 0.158075,-0.02968 0.315612,-0.06238 0.474226,-0.08904 2.09686,-0.352391 4.216119,-0.574143 6.335392,-0.736545 0.764789,-0.05861 1.530891,-0.09859 2.296336,-0.14788 1.814828,-0.04046 2.465591,-0.07722 4.236546,-0.03505 0.555098,0.01321 1.109466,0.04813 1.664197,0.07221 0,0 -0.360864,0.203553 -0.360864,0.203553 v 0 c -0.537084,-0.03352 -1.073534,-0.07967 -1.611262,-0.100469 -1.799976,-0.06958 -2.326166,-0.02981 -4.183607,0.0076 -0.768643,0.05149 -1.538218,0.09055 -2.305926,0.154459 -1.490058,0.124048 -2.754656,0.272545 -4.224822,0.48614 -0.632183,0.09185 -1.697291,0.271921 -2.374817,0.413082 -0.177498,0.03698 -0.352478,0.08516 -0.528717,0.127743 0,0 0.583319,-0.355791 0.583319,-0.355791 z"
       inkscape:connector-curvature="0" />
  </g>
</svg>
